<svg xmlns="http://www.w3.org/2000/svg" width="739" height="185" viewBox="0 0 739 185"><defs><style>.cls-1{fill:#fff;}</style></defs><title>Asset 1</title><g id="Layer_2" data-name="Layer 2"><g id="Layer_1-2" data-name="Layer 1"><g id="Layer_1-2-2" data-name="Layer 1-2"><path class="cls-1" d="M71,0a16,16,0,0,0,3,1.06,47,47,0,0,1,39.83,43.05,25,25,0,0,1-.15,2.73H95.47c-.8-9.6-4.63-17.55-12.87-23a26.22,26.22,0,0,0-19-4.41C46.4,22.22,37.49,35.65,39.44,55.19c8.05-1.46,16.08-3.56,24.23-4.28,32.17-2.82,63,21,69.27,53.05,7.57,38.69-18,74.58-56.91,80.09a7.81,7.81,0,0,0-2,.95H61V166h6a48.29,48.29,0,0,0,48.67-47.89,47.54,47.54,0,0,0-.45-7c-3.31-25-25.81-43.7-50.66-42C38.9,70.83,19,91.61,18.86,117c-.08,13.83,0,27.66,0,41.49,0,1.38-.18,2.76-.34,5A66.69,66.69,0,0,1,2,132.87c-.53-2-1.34-3.87-2-5.87V108c.33-.32.89-.6,1-1A67.59,67.59,0,0,1,20.83,69.22V46.66A45.91,45.91,0,0,1,57.1,1.83C59.42,1.31,61.7.61,64,0Z"/><path class="cls-1" d="M739,78H727.36v58.79H708v-59l-9.53-.5V60.94h9.33V32.84h19.44V61H739Z"/><path class="cls-1" d="M476.15,61h18.58c.16,2.4.32,4.77.48,7.3,17.1-14.6,36.59-11.84,46.14,3.51,7.09-9.28,16.36-13.7,28-12.94,12.21.8,21.42,8.49,22.55,20.6,1.06,11.41.83,22.94,1,34.42.13,7.49,0,15,0,22.86H573.43V128c-.08-12.16.16-24.33-.33-36.48-.42-10.21-4.38-14.68-11.87-15-8.15-.31-15,5.68-16.17,14.59a137.05,137.05,0,0,0-.86,15.43c-.12,10,0,19.94,0,30.23H524.83v-5.22c-.23-13.82-.15-27.65-.82-41.45-.39-8.26-4.51-12.62-10.87-13.42a14.58,14.58,0,0,0-15.88,10.18,57.14,57.14,0,0,0-2.16,15.21c-.3,11.46-.1,22.93-.1,34.71H476.15Z"/><path class="cls-1" d="M170.79,164.88H151.51V61.21h18.77l.67,7c6.41-5.44,13.06-8.82,21-9.29,14.44-.85,25.46,5.22,32.49,17.39,8.33,14.43,8.48,29.69.34,44.27-9.55,17.11-32.59,26.6-54,9.46Zm-.94-66.35c0,13.54,8.22,22.63,20.52,22.62,11.86,0,20.58-9.41,20.63-22.24s-8.48-22.23-20.46-22.33-20.67,9-20.69,22Z"/><path class="cls-1" d="M611,164.7V61.21h19c.1,2.15.2,4.22.29,6.06,5-2.48,9.59-5.65,14.68-7.13,21.76-6.32,42.91,9.69,44.91,33.66,1.17,14-2.29,26.4-13,36.17-12.61,11.47-30.37,12.19-43.86,1.71-.64-.5-1.3-1-2.6-1.93V164.7Zm38.73-43.55c12,.13,21.1-9.57,21.09-22.43,0-12.43-8.72-21.91-20.33-22.14-12.17-.23-21.32,9.27-21.33,22.15s8.75,22.27,20.58,22.42Z"/><path class="cls-1" d="M368,104.64H307.46c1,7.12,4.5,12,10.36,14.8,10.68,5.12,20.38,2.46,29.48-4.94l15.61,7.37c-8.38,15.51-32.78,21.94-51.62,13.89-18.65-8-27.69-29.78-20.9-50.41C297,65.22,317,55,339.44,60.07,358.28,64.36,370.92,83.64,368,104.64ZM308.64,89.15h40.21c-3.54-9.05-10.16-13.47-19.54-13.58C319.14,75.46,312.56,79.58,308.64,89.15Z"/><path class="cls-1" d="M460.08,104.6h-60.7c1.16,7.07,4.45,12,10.34,14.8,10.69,5.14,20.36,2.55,29.53-4.9l15.58,7.36c-8.21,15.39-32.24,21.92-51.08,14.12s-28.2-29.67-21.47-50.58c6.4-19.86,26.41-30.34,48.55-25.43C450.06,64.24,462.73,83.15,460.08,104.6ZM440.76,89C437,79.33,429,74.76,418.27,75.64c-8.82.72-15.47,5.83-17.14,13.32Z"/><path class="cls-1" d="M258.43,68.57c8.29-9.88,15.22-12,24.14-7.49-1.82,5.19-3.67,10.46-5.5,15.66-10.64-1.1-14.08,1-15.07,11.78-1.09,11.73-.86,23.59-1.14,35.39-.09,4.15,0,8.29,0,12.85H241.7V61.14h16.24C258.09,63.49,258.25,65.8,258.43,68.57Z"/><path class="cls-1" d="M299.75,47.47V36.34h56.52V47.47Z"/><path class="cls-1" d="M49.12,149.71v32.91l-18.18-8.15c0-20.88-.48-41,.15-61.16C31.6,96.73,47.37,82.08,64.37,81,82.94,79.88,99.42,92,103,109.57c2.92,14.45-1.11,26.86-12.5,36.23s-24.29,10.79-38,5.3Zm36-31.86A17.86,17.86,0,0,0,67.75,99.53h-.26a18.18,18.18,0,0,0-18.32,17.81A18.52,18.52,0,0,0,67,135.81a18.14,18.14,0,0,0,18.16-18Z"/></g></g></g></svg>
